<svg width="19" height="19" viewBox="0 0 19 19" fill="none" xmlns="http://www.w3.org/2000/svg">
<path d="M18.7554 17.575L14.6828 13.5024C15.8484 12.0762 16.549 10.2559 16.549 8.2746C16.549 3.71209 12.8371 0 8.2746 0C3.71209 0 0 3.71209 0 8.27459C0 12.8371 3.71193 16.5492 8.2746 16.5492C10.2559 16.5492 12.0762 15.8485 13.5024 14.6828L17.575 18.7554C17.7379 18.9185 17.9517 19 18.1652 19C18.3788 19 18.5926 18.9185 18.7554 18.7554C19.0815 18.4294 19.0815 17.9011 18.7554 17.575ZM1.66953 8.27459C1.66953 4.63261 4.63261 1.66953 8.2746 1.66953C11.9166 1.66953 14.8795 4.63261 14.8795 8.27459C14.8795 11.9166 11.9166 14.8797 8.2746 14.8797C4.63262 14.8797 1.66953 11.9166 1.66953 8.27459Z" fill="#FF6A00"/>
</svg>
